<svg width="480" height="360" viewBox="0 0 480 360" fill="none" xmlns="http://www.w3.org/2000/svg">
  <rect width="480" height="360" rx="48" fill="url(#paint0_radial_0_1)" fill-opacity="0.9"/>
  <g filter="url(#filter0_f_0_1)">
    <ellipse cx="147" cy="96" rx="102" ry="88" fill="#4F46E5" fill-opacity="0.32"/>
  </g>
  <g filter="url(#filter1_f_0_1)">
    <ellipse cx="337" cy="186" rx="124" ry="104" fill="#22D3EE" fill-opacity="0.28"/>
  </g>
  <path d="M140 130c0-16.568 13.432-30 30-30h140c16.568 0 30 13.432 30 30v100c0 16.569-13.432 30-30 30H170c-16.568 0-30-13.431-30-30V130Z" fill="url(#paint1_linear_0_1)" fill-opacity="0.7" stroke="rgba(255,255,255,0.6)" stroke-width="1.6"/>
  <path d="M194 122c0-11.046 8.954-20 20-20h52c11.046 0 20 8.954 20 20v4h-92v-4Z" fill="url(#paint2_linear_0_1)"/>
  <rect x="190" y="168" width="148" height="12" rx="6" fill="white" fill-opacity="0.75"/>
  <rect x="190" y="196" width="108" height="10" rx="5" fill="white" fill-opacity="0.65"/>
  <rect x="190" y="220" width="88" height="10" rx="5" fill="white" fill-opacity="0.55"/>
  <circle cx="212" cy="148" r="10" fill="white" fill-opacity="0.8"/>
  <circle cx="244" cy="148" r="10" fill="white" fill-opacity="0.4"/>
  <circle cx="276" cy="148" r="10" fill="white" fill-opacity="0.25"/>
  <g filter="url(#filter2_b_0_1)">
    <path d="M120 230c0-17.673 14.327-32 32-32h64v32c0 17.673-14.327 32-32 32h-64v-32Z" fill="rgba(255,255,255,0.45)"/>
    <path d="M148 208h68v24c0 9.941-8.059 18-18 18h-68v-24c0-9.941 8.059-18 18-18Z" stroke="rgba(255,255,255,0.6)" stroke-width="1.2"/>
  </g>
  <g filter="url(#filter3_b_0_1)">
    <path d="M320 106h48c5.523 0 10 4.477 10 10v64c0 5.523-4.477 10-10 10h-48c-5.523 0-10-4.477-10-10v-64c0-5.523 4.477-10 10-10Z" fill="rgba(255,255,255,0.35)" stroke="rgba(255,255,255,0.55)" stroke-width="1.2"/>
    <rect x="332" y="124" width="24" height="4" rx="2" fill="white" fill-opacity="0.7"/>
    <rect x="332" y="136" width="16" height="4" rx="2" fill="white" fill-opacity="0.5"/>
    <rect x="332" y="148" width="20" height="4" rx="2" fill="white" fill-opacity="0.45"/>
  </g>
  <circle cx="130" cy="120" r="12" fill="#22D3EE" fill-opacity="0.6"/>
  <circle cx="116" cy="220" r="8" fill="#F97316" fill-opacity="0.45"/>
  <circle cx="356" cy="92" r="10" fill="#A855F7" fill-opacity="0.5"/>
  <circle cx="358" cy="256" r="14" fill="#22C55E" fill-opacity="0.45"/>
  <defs>
    <filter id="filter0_f_0_1" x="-35" y="-80" width="364" height="352" filterUnits="userSpaceOnUse" color-interpolation-filters="sRGB">
      <feFlood flood-opacity="0" result="BackgroundImageFix"/>
      <feBlend mode="normal" in="SourceGraphic" in2="BackgroundImageFix" result="shape"/>
      <feGaussianBlur stdDeviation="40" result="effect1_foregroundBlur_0_1"/>
    </filter>
    <filter id="filter1_f_0_1" x="153" y="22" width="368" height="328" filterUnits="userSpaceOnUse" color-interpolation-filters="sRGB">
      <feFlood flood-opacity="0" result="BackgroundImageFix"/>
      <feBlend mode="normal" in="SourceGraphic" in2="BackgroundImageFix" result="shape"/>
      <feGaussianBlur stdDeviation="38" result="effect1_foregroundBlur_0_1"/>
    </filter>
    <filter id="filter2_b_0_1" x="112" y="198" width="112" height="72" filterUnits="userSpaceOnUse" color-interpolation-filters="sRGB">
      <feFlood flood-opacity="0" result="BackgroundImageFix"/>
      <feGaussianBlur in="BackgroundImage" stdDeviation="4"/>
      <feComposite in2="SourceAlpha" operator="in" result="effect1_backgroundBlur_0_1"/>
      <feBlend mode="normal" in="SourceGraphic" in2="effect1_backgroundBlur_0_1" result="shape"/>
    </filter>
    <filter id="filter3_b_0_1" x="300" y="90" width="88" height="108" filterUnits="userSpaceOnUse" color-interpolation-filters="sRGB">
      <feFlood flood-opacity="0" result="BackgroundImageFix"/>
      <feGaussianBlur in="BackgroundImage" stdDeviation="6"/>
      <feComposite in2="SourceAlpha" operator="in" result="effect1_backgroundBlur_0_1"/>
      <feBlend mode="normal" in="SourceGraphic" in2="effect1_backgroundBlur_0_1" result="shape"/>
    </filter>
    <radialGradient id="paint0_radial_0_1" cx="0" cy="0" r="1" gradientUnits="userSpaceOnUse" gradientTransform="translate(120 80) rotate(25) scale(420 360)">
      <stop stop-color="#F8FAFC" stop-opacity="0.75"/>
      <stop offset="1" stop-color="#E2E8F0" stop-opacity="0.35"/>
    </radialGradient>
    <linearGradient id="paint1_linear_0_1" x1="200" y1="102" x2="320" y2="250" gradientUnits="userSpaceOnUse">
      <stop stop-color="#FFFFFF" stop-opacity="0.76"/>
      <stop offset="1" stop-color="#D9E3FF" stop-opacity="0.38"/>
    </linearGradient>
    <linearGradient id="paint2_linear_0_1" x1="194" y1="102" x2="302" y2="126" gradientUnits="userSpaceOnUse">
      <stop stop-color="#5E81FF" stop-opacity="0.85"/>
      <stop offset="1" stop-color="#2CD9FF" stop-opacity="0.7"/>
    </linearGradient>
  </defs>
</svg>
